<mxfile host="app.diagrams.net" agent="Mozilla/5.0 (Windows NT 10.0; Win64; x64) AppleWebKit/537.36 (KHTML, like Gecko) Chrome/132.0.0.0 Safari/537.36" version="26.0.10">
  <diagram name="Страница — 1" id="hi3maOYxdtd5-xxtNOdB">
    <mxGraphModel dx="1354" dy="566" grid="1" gridSize="10" guides="1" tooltips="1" connect="1" arrows="1" fold="1" page="1" pageScale="1" pageWidth="827" pageHeight="1169" math="0" shadow="0">
      <root>
        <mxCell id="0" />
        <mxCell id="1" parent="0" />
        <mxCell id="Io2_79ap3ZeYCi0wvSEB-40" style="edgeStyle=orthogonalEdgeStyle;rounded=0;orthogonalLoop=1;jettySize=auto;html=1;" edge="1" parent="1" source="Io2_79ap3ZeYCi0wvSEB-41">
          <mxGeometry relative="1" as="geometry">
            <mxPoint x="328" y="160" as="targetPoint" />
          </mxGeometry>
        </mxCell>
        <mxCell id="Io2_79ap3ZeYCi0wvSEB-41" value="&lt;font style=&quot;font-size: 14px;&quot;&gt;Начало&lt;/font&gt;&lt;div&gt;&lt;font style=&quot;font-size: 14px;&quot;&gt;ThreeSidesDraw&lt;/font&gt;&lt;/div&gt;" style="ellipse;whiteSpace=wrap;html=1;" vertex="1" parent="1">
          <mxGeometry x="255" y="10" width="146" height="100" as="geometry" />
        </mxCell>
        <mxCell id="Io2_79ap3ZeYCi0wvSEB-44" style="edgeStyle=orthogonalEdgeStyle;rounded=0;orthogonalLoop=1;jettySize=auto;html=1;" edge="1" parent="1" source="Io2_79ap3ZeYCi0wvSEB-45" target="Io2_79ap3ZeYCi0wvSEB-47">
          <mxGeometry relative="1" as="geometry">
            <mxPoint x="329" y="480" as="targetPoint" />
          </mxGeometry>
        </mxCell>
        <mxCell id="Io2_79ap3ZeYCi0wvSEB-45" value="&lt;div&gt;&lt;span style=&quot;font-size: 14px;&quot;&gt;cx := 300 + OffsetX&lt;/span&gt;&lt;/div&gt;&lt;div&gt;&lt;span style=&quot;font-size: 14px;&quot;&gt;&amp;nbsp; cy := 300 + OffsetY&lt;/span&gt;&lt;/div&gt;" style="rounded=0;whiteSpace=wrap;html=1;" vertex="1" parent="1">
          <mxGeometry x="244" y="260" width="166" height="50" as="geometry" />
        </mxCell>
        <mxCell id="Io2_79ap3ZeYCi0wvSEB-46" style="edgeStyle=orthogonalEdgeStyle;rounded=0;orthogonalLoop=1;jettySize=auto;html=1;" edge="1" parent="1" source="Io2_79ap3ZeYCi0wvSEB-47">
          <mxGeometry relative="1" as="geometry">
            <mxPoint x="327" y="490" as="targetPoint" />
          </mxGeometry>
        </mxCell>
        <mxCell id="Io2_79ap3ZeYCi0wvSEB-47" value="&lt;div&gt;x1 := cx - 150 * Scale&lt;/div&gt;&lt;div&gt;&amp;nbsp; y1 := cy + 100 * Scale&lt;/div&gt;&lt;div&gt;&amp;nbsp; x2 := cx + 150 * Scale&lt;/div&gt;&lt;div&gt;&amp;nbsp; y2 := y1&lt;/div&gt;&lt;div&gt;&amp;nbsp; x3 := cx&lt;/div&gt;&lt;div&gt;&amp;nbsp; y3 := cy - 200 * Scale&lt;/div&gt;" style="rounded=0;whiteSpace=wrap;html=1;fontSize=14;" vertex="1" parent="1">
          <mxGeometry x="242" y="340" width="170" height="110" as="geometry" />
        </mxCell>
        <mxCell id="Io2_79ap3ZeYCi0wvSEB-48" style="edgeStyle=orthogonalEdgeStyle;rounded=0;orthogonalLoop=1;jettySize=auto;html=1;entryX=0.5;entryY=0;entryDx=0;entryDy=0;" edge="1" parent="1">
          <mxGeometry relative="1" as="geometry">
            <mxPoint x="331" y="530" as="sourcePoint" />
            <mxPoint x="330.5" y="565" as="targetPoint" />
          </mxGeometry>
        </mxCell>
        <mxCell id="Io2_79ap3ZeYCi0wvSEB-49" style="edgeStyle=orthogonalEdgeStyle;rounded=0;orthogonalLoop=1;jettySize=auto;html=1;entryX=0.5;entryY=0;entryDx=0;entryDy=0;" edge="1" parent="1">
          <mxGeometry relative="1" as="geometry">
            <mxPoint x="330.5" y="605" as="sourcePoint" />
            <mxPoint x="330.5" y="640" as="targetPoint" />
          </mxGeometry>
        </mxCell>
        <mxCell id="Io2_79ap3ZeYCi0wvSEB-51" value="&lt;font style=&quot;font-size: 14px;&quot;&gt;Конец&lt;/font&gt;&lt;div&gt;&lt;span style=&quot;font-size: 14px;&quot;&gt;ThreeSidesDraw&lt;/span&gt;&lt;/div&gt;" style="ellipse;whiteSpace=wrap;html=1;" vertex="1" parent="1">
          <mxGeometry x="254" y="790" width="146" height="100" as="geometry" />
        </mxCell>
        <mxCell id="Io2_79ap3ZeYCi0wvSEB-52" value="&lt;span style=&quot;font-size: 14px;&quot;&gt;FrstPart(x1, y1, x2, y2, Depth)&lt;/span&gt;" style="shape=process;whiteSpace=wrap;html=1;backgroundOutline=1;" vertex="1" parent="1">
          <mxGeometry x="245" y="490" width="170" height="40" as="geometry" />
        </mxCell>
        <mxCell id="Io2_79ap3ZeYCi0wvSEB-53" value="&lt;span style=&quot;font-size: 14px;&quot;&gt;FrstPart(x2, y2, x3, y3, Depth)&lt;/span&gt;" style="shape=process;whiteSpace=wrap;html=1;backgroundOutline=1;" vertex="1" parent="1">
          <mxGeometry x="246" y="560" width="170" height="40" as="geometry" />
        </mxCell>
        <mxCell id="Io2_79ap3ZeYCi0wvSEB-57" style="edgeStyle=orthogonalEdgeStyle;rounded=0;orthogonalLoop=1;jettySize=auto;html=1;" edge="1" parent="1" source="Io2_79ap3ZeYCi0wvSEB-54" target="Io2_79ap3ZeYCi0wvSEB-58">
          <mxGeometry relative="1" as="geometry">
            <mxPoint x="329" y="730" as="targetPoint" />
          </mxGeometry>
        </mxCell>
        <mxCell id="Io2_79ap3ZeYCi0wvSEB-54" value="&lt;span style=&quot;font-size: 14px;&quot;&gt;FrstPart(x3, y3, x1, y1, Depth)&lt;/span&gt;" style="shape=process;whiteSpace=wrap;html=1;backgroundOutline=1;" vertex="1" parent="1">
          <mxGeometry x="244" y="640" width="170" height="40" as="geometry" />
        </mxCell>
        <mxCell id="Io2_79ap3ZeYCi0wvSEB-56" style="edgeStyle=orthogonalEdgeStyle;rounded=0;orthogonalLoop=1;jettySize=auto;html=1;entryX=0.5;entryY=0;entryDx=0;entryDy=0;" edge="1" parent="1" source="Io2_79ap3ZeYCi0wvSEB-55" target="Io2_79ap3ZeYCi0wvSEB-45">
          <mxGeometry relative="1" as="geometry" />
        </mxCell>
        <mxCell id="Io2_79ap3ZeYCi0wvSEB-55" value="&lt;div&gt;LockDrawing;&lt;/div&gt;&lt;div&gt;&amp;nbsp; ClearWindow;&lt;span style=&quot;background-color: transparent; color: light-dark(rgb(0, 0, 0), rgb(255, 255, 255));&quot;&gt;&amp;nbsp; SetBrushColor(clWhite)&lt;/span&gt;&lt;/div&gt;&lt;div&gt;&amp;nbsp;SetPenColor(clBlack)&lt;/div&gt;" style="rounded=0;whiteSpace=wrap;html=1;fontSize=14;" vertex="1" parent="1">
          <mxGeometry x="249" y="160" width="160" height="70" as="geometry" />
        </mxCell>
        <mxCell id="Io2_79ap3ZeYCi0wvSEB-60" style="edgeStyle=orthogonalEdgeStyle;rounded=0;orthogonalLoop=1;jettySize=auto;html=1;entryX=0.5;entryY=0;entryDx=0;entryDy=0;" edge="1" parent="1" source="Io2_79ap3ZeYCi0wvSEB-58" target="Io2_79ap3ZeYCi0wvSEB-51">
          <mxGeometry relative="1" as="geometry" />
        </mxCell>
        <mxCell id="Io2_79ap3ZeYCi0wvSEB-58" value="Redraw" style="rounded=0;whiteSpace=wrap;html=1;fontSize=14;" vertex="1" parent="1">
          <mxGeometry x="238" y="720" width="180" height="30" as="geometry" />
        </mxCell>
      </root>
    </mxGraphModel>
  </diagram>
</mxfile>
